<svg width="896" height="414" viewBox="0 0 896 414" xmlns="http://www.w3.org/2000/svg">
  <!-- Background -->
  <rect width="896" height="414" fill="#1d2021"/>
  
  <!-- Header -->
  <rect width="896" height="60" fill="#3c3836"/>
  <text x="20" y="38" font-family="Hack Nerd Font" font-size="20" font-weight="500" fill="#ebdbb2">Visit Requests</text>
  <text x="876" y="38" font-family="Hack Nerd Font" font-size="20" text-anchor="end" fill="#ebdbb2">☰</text>

  <!-- Filter Tabs -->
  <rect x="20" y="70" width="856" height="40" rx="4" ry="4" fill="#3c3836"/>
  <rect x="20" y="70" width="285" height="40" rx="4" ry="4" fill="#504945"/>
  <text x="162" y="95" font-family="Hack Nerd Font" font-size="14" text-anchor="middle" fill="#ebdbb2">Pending</text>
  <text x="448" y="95" font-family="Hack Nerd Font" font-size="14" text-anchor="middle" fill="#bdae93">Approved</text>
  <text x="733" y="95" font-family="Hack Nerd Font" font-size="14" text-anchor="middle" fill="#bdae93">Rejected</text>
  
  <!-- Visit Request 1 -->
  <rect x="20" y="120" width="420" height="140" rx="4" ry="4" fill="#3c3836" stroke="#504945" stroke-width="1"/>
  <text x="30" y="145" font-family="Hack Nerd Font" font-size="16" font-weight="500" fill="#b8bb26">John Doe</text>
  <text x="30" y="170" font-family="Hack Nerd Font" font-size="14" fill="#bdae93">Date Requested: March 5, 2025</text>
  <text x="30" y="195" font-family="Hack Nerd Font" font-size="14" fill="#bdae93">Preferred Date: March 10, 2025</text>
  <text x="30" y="220" font-family="Hack Nerd Font" font-size="14" fill="#bdae93">Reason: Annual checkup</text>
  <rect x="30" y="230" width="180" height="30" rx="4" ry="4" fill="#689d6a"/>
  <text x="120" y="250" font-family="Hack Nerd Font" font-size="12" text-anchor="middle" fill="#ebdbb2">APPROVE</text>
  <rect x="230" y="230" width="180" height="30" rx="4" ry="4" fill="#cc241d"/>
  <text x="320" y="250" font-family="Hack Nerd Font" font-size="12" text-anchor="middle" fill="#ebdbb2">REJECT</text>
  
  <!-- Visit Request 2 -->
  <rect x="456" y="120" width="420" height="140" rx="4" ry="4" fill="#3c3836" stroke="#504945" stroke-width="1"/>
  <text x="466" y="145" font-family="Hack Nerd Font" font-size="16" font-weight="500" fill="#fabd2f">Jane Smith</text>
  <text x="466" y="170" font-family="Hack Nerd Font" font-size="14" fill="#bdae93">Date Requested: March 6, 2025</text>
  <text x="466" y="195" font-family="Hack Nerd Font" font-size="14" fill="#bdae93">Preferred Date: March 15, 2025</text>
  <text x="466" y="220" font-family="Hack Nerd Font" font-size="14" fill="#bdae93">Reason: Persistent headaches</text>
  <rect x="466" y="230" width="180" height="30" rx="4" ry="4" fill="#689d6a"/>
  <text x="556" y="250" font-family="Hack Nerd Font" font-size="12" text-anchor="middle" fill="#ebdbb2">APPROVE</text>
  <rect x="666" y="230" width="180" height="30" rx="4" ry="4" fill="#cc241d"/>
  <text x="756" y="250" font-family="Hack Nerd Font" font-size="12" text-anchor="middle" fill="#ebdbb2">REJECT</text>
  
  <!-- Visit Request 3 -->
  <rect x="20" y="270" width="420" height="140" rx="4" ry="4" fill="#3c3836" stroke="#504945" stroke-width="1"/>
  <text x="30" y="295" font-family="Hack Nerd Font" font-size="16" font-weight="500" fill="#83a598">Robert Johnson</text>
  <text x="30" y="320" font-family="Hack Nerd Font" font-size="14" fill="#bdae93">Date Requested: March 7, 2025</text>
  <text x="30" y="345" font-family="Hack Nerd Font" font-size="14" fill="#bdae93">Preferred Date: March 12, 2025</text>
  <text x="30" y="370" font-family="Hack Nerd Font" font-size="14" fill="#bdae93">Reason: Follow-up appointment</text>
  <rect x="30" y="380" width="180" height="30" rx="4" ry="4" fill="#689d6a"/>
  <text x="120" y="400" font-family="Hack Nerd Font" font-size="12" text-anchor="middle" fill="#ebdbb2">APPROVE</text>
  <rect x="230" y="380" width="180" height="30" rx="4" ry="4" fill="#cc241d"/>
  <text x="320" y="400" font-family="Hack Nerd Font" font-size="12" text-anchor="middle" fill="#ebdbb2">REJECT</text>
  
  <!-- Visit Request 4 -->
  <rect x="456" y="270" width="420" height="140" rx="4" ry="4" fill="#3c3836" stroke="#504945" stroke-width="1"/>
  <text x="466" y="295" font-family="Hack Nerd Font" font-size="16" font-weight="500" fill="#d3869b">Maria Garcia</text>
  <text x="466" y="320" font-family="Hack Nerd Font" font-size="14" fill="#bdae93">Date Requested: March 8, 2025</text>
  <text x="466" y="345" font-family="Hack Nerd Font" font-size="14" fill="#bdae93">Preferred Date: March 20, 2025</text>
  <text x="466" y="370" font-family="Hack Nerd Font" font-size="14" fill="#bdae93">Reason: Medication review</text>
  <rect x="466" y="380" width="180" height="30" rx="4" ry="4" fill="#689d6a"/>
  <text x="556" y="400" font-family="Hack Nerd Font" font-size="12" text-anchor="middle" fill="#ebdbb2">APPROVE</text>
  <rect x="666" y="380" width="180" height="30" rx="4" ry="4" fill="#cc241d"/>
  <text x="756" y="400" font-family="Hack Nerd Font" font-size="12" text-anchor="middle" fill="#ebdbb2">REJECT</text>
</svg>
